# xmcd
#
# Track frame offsets: 
#        150
#        16705
#        34745
#        53157
#        78195
#        94737
#        113310
#        129420
#        145970
#        161840
#        177480
#        196277
#        211192
#        226205
#        243860
#        261057
#        276520
#        295992
#        311880
#        328892
#
# Disc length: 4606 seconds
#
# Revision: 6
# Processed by: cddbd v1.5.2PL0 Copyright (c) Steve Scherf et al.
# Submitted via: ExactAudioCopyFreeDBPlugin 1.0
#
DISCID=1911fc14
DTITLE=Various Artist - SummerVybes
DYEAR=1900
DGENRE=R&B
TTITLE0=Coolio - Too Hot
TTITLE1=Montell Jordan - Something 4 Da Honeyz
TTITLE2=Luniz - I Got 5 On It
TTITLE3=R. Kelly - Thank God It's Friday (The Incognito Mix)
TTITLE4=LV - Throw Your Hands Up
TTITLE5=Lighthouse Family - Lifted
TTITLE6=Darkman - Brand New Day (I'm No Puppet)
TTITLE7=Chaka Demus and Pliers - Tease Me
TTITLE8=Shabba Ranks - Mr Loverman
TTITLE9=Red Dragon, Brian and Tony Gold\\\\Red Dragon\\\\Brian and Ton
TTITLE9=y Gold - Compliments On Your Kiss
TTITLE10=Ini Kamoze - Here Comes The Hotstepper
TTITLE11=Aswad - Don't Turn Around
TTITLE12=Dawn Penn - You Don't Love Me (No, No, No) (Original Radio Ed
TTITLE12=it)
TTITLE13=Love City Groove - Love City Groove
TTITLE14=China Black - Searching
TTITLE15=Louchie Lou, Michie One\\\\Louchie Lou\\\\Michie One - Shout 
TTITLE15=(It Out)
TTITLE16=Pharcyde - Runnin'
TTITLE17=Maxi Priest - Close To You
TTITLE18=Inner Circle - Sweat (A La La La La Long) (Original Version)
TTITLE19=Soul II Soul - Back To Life (However Do You Want Me)
EXTD=
EXTT0=
EXTT1=
EXTT2=
EXTT3=
EXTT4=
EXTT5=
EXTT6=
EXTT7=
EXTT8=
EXTT9=
EXTT10=
EXTT11=
EXTT12=
EXTT13=
EXTT14=
EXTT15=
EXTT16=
EXTT17=
EXTT18=
EXTT19=
PLAYORDER=
